<?xml version="1.0" encoding="UTF-8"?>
<svg id="Layer_1" data-name="Layer 1" xmlns="http://www.w3.org/2000/svg" width="1000" height="339.023" viewBox="0 0 1000 339.023">
  <g>
    <path d="M176.453,150.377V30.075h78.156v18.166h-56.599v32.456h52.4v17.924h-52.4v33.588h56.922v18.166h-78.479Z" fill="#39b54a"/>
    <path d="M314.518,186.064c-7.213,0-13.497-.915-18.853-2.745s-9.743-4.32-13.161-7.468c-3.418-3.149-5.881-6.715-7.388-10.698l17.763-6.378c.969,1.669,2.301,3.391,3.997,5.167s3.956,3.243,6.782,4.4c2.826,1.157,6.419,1.736,10.779,1.736,6.513,0,11.734-1.521,15.664-4.562s5.894-7.791,5.894-14.251v-17.036h-1.776c-1.023,2.153-2.53,4.373-4.521,6.661-1.992,2.29-4.669,4.212-8.034,5.773-3.364,1.563-7.657,2.341-12.878,2.341-6.89,0-13.147-1.626-18.772-4.885-5.625-3.257-10.092-8.141-13.403-14.654-3.31-6.511-4.966-14.666-4.966-24.464,0-9.902,1.669-18.274,5.006-25.11,3.337-6.834,7.818-12.029,13.443-15.582,5.625-3.553,11.909-5.329,18.853-5.329,5.329,0,9.716.888,13.161,2.664s6.19,3.916,8.235,6.419c2.045,2.503,3.606,4.832,4.683,6.983h1.13v-14.936h20.589v90.508c0,8.02-1.83,14.654-5.49,19.902-3.66,5.248-8.666,9.151-15.018,11.707s-13.591,3.835-21.719,3.835ZM314.68,132.452c4.575,0,8.451-1.09,11.627-3.27,3.176-2.18,5.598-5.34,7.267-9.487,1.669-4.145,2.503-9.094,2.503-14.856,0-5.703-.821-10.698-2.463-14.977-1.642-4.279-4.05-7.616-7.226-10.012-3.176-2.393-7.078-3.593-11.707-3.593-4.737,0-8.706,1.251-11.909,3.754-3.203,2.503-5.611,5.894-7.226,10.173-1.615,4.279-2.422,9.164-2.422,14.654,0,5.544.821,10.389,2.463,14.533,1.642,4.147,4.064,7.361,7.267,9.648,3.203,2.29,7.145,3.431,11.828,3.431Z" fill="#39b54a"/>
    <path d="M417.946,186.064c-7.213,0-13.497-.915-18.853-2.745s-9.743-4.32-13.161-7.468c-3.418-3.149-5.881-6.715-7.388-10.698l17.763-6.378c.969,1.669,2.301,3.391,3.997,5.167s3.956,3.243,6.782,4.4c2.826,1.157,6.419,1.736,10.779,1.736,6.513,0,11.734-1.521,15.664-4.562,3.929-3.041,5.894-7.791,5.894-14.251v-17.036h-1.776c-1.023,2.153-2.53,4.373-4.521,6.661-1.992,2.29-4.669,4.212-8.034,5.773-3.364,1.563-7.657,2.341-12.878,2.341-6.89,0-13.147-1.626-18.772-4.885-5.625-3.257-10.092-8.141-13.403-14.654-3.31-6.511-4.966-14.666-4.966-24.464,0-9.902,1.669-18.274,5.006-25.11,3.337-6.834,7.818-12.029,13.443-15.582,5.625-3.553,11.909-5.329,18.853-5.329,5.329,0,9.716.888,13.161,2.664,3.445,1.776,6.19,3.916,8.235,6.419,2.045,2.503,3.606,4.832,4.683,6.983h1.13v-14.936h20.589v90.508c0,8.02-1.83,14.654-5.49,19.902-3.66,5.248-8.666,9.151-15.018,11.707s-13.591,3.835-21.719,3.835ZM418.108,132.452c4.575,0,8.451-1.09,11.627-3.27,3.176-2.18,5.598-5.34,7.267-9.487,1.669-4.145,2.503-9.094,2.503-14.856,0-5.703-.821-10.698-2.463-14.977s-4.05-7.616-7.226-10.012c-3.176-2.393-7.078-3.593-11.707-3.593-4.737,0-8.706,1.251-11.909,3.754-3.203,2.503-5.611,5.894-7.226,10.173-1.615,4.279-2.422,9.164-2.422,14.654,0,5.544.821,10.389,2.463,14.533,1.642,4.147,4.064,7.361,7.267,9.648,3.203,2.29,7.145,3.431,11.828,3.431Z" fill="#39b54a"/>
    <path d="M516.61,152.234c-6.944,0-13.08-.996-18.409-2.987-5.329-1.989-9.702-4.896-13.12-8.72-3.418-3.822-5.638-8.449-6.661-13.887l19.62-3.714c1.238,4.47,3.431,7.791,6.58,9.971,3.149,2.18,7.28,3.27,12.394,3.27,5.167,0,9.272-1.036,12.313-3.108,3.041-2.07,4.562-4.643,4.562-7.711,0-2.584-.996-4.723-2.987-6.419s-5.06-2.999-9.204-3.916l-15.421-3.31c-8.505-1.828-14.856-4.844-19.055-9.043-4.198-4.198-6.298-9.608-6.298-16.229,0-5.598,1.534-10.442,4.602-14.532,3.068-4.09,7.334-7.267,12.797-9.527s11.801-3.391,19.014-3.391c6.836,0,12.717.969,17.642,2.907,4.925,1.938,8.908,4.643,11.95,8.114,3.041,3.471,5.154,7.548,6.338,12.231l-18.732,3.714c-1.023-3.176-2.88-5.854-5.571-8.034s-6.486-3.27-11.384-3.27c-4.468,0-8.195.982-11.182,2.947-2.987,1.967-4.481,4.481-4.481,7.549,0,2.638.996,4.817,2.987,6.54,1.992,1.725,5.275,3.068,9.85,4.037l15.341,3.23c8.558,1.83,14.91,4.764,19.055,8.801s6.217,9.234,6.217,15.583c0,5.706-1.642,10.727-4.925,15.058-3.283,4.333-7.845,7.724-13.685,10.173-5.84,2.449-12.555,3.674-20.145,3.674Z" fill="#39b54a"/>
    <path d="M573.29,184.126V60.111h20.508v14.936h1.373c1.077-2.151,2.611-4.466,4.602-6.943,1.992-2.475,4.696-4.615,8.114-6.419,3.418-1.803,7.791-2.705,13.12-2.705,6.997,0,13.295,1.776,18.893,5.329,5.598,3.553,10.052,8.788,13.362,15.703,3.31,6.917,4.966,15.381,4.966,25.393,0,9.904-1.615,18.328-4.844,25.272-3.23,6.944-7.657,12.232-13.282,15.865-5.625,3.633-12.017,5.45-19.176,5.45-5.114,0-9.393-.875-12.838-2.624-3.445-1.747-6.19-3.862-8.235-6.338-2.045-2.474-3.606-4.791-4.683-6.944h-.888v48.04h-20.992ZM615.274,134.713c4.683,0,8.612-1.278,11.788-3.835,3.176-2.555,5.571-6.055,7.186-10.496,1.615-4.441,2.422-9.458,2.422-15.058s-.794-10.588-2.382-14.977c-1.588-4.387-3.97-7.832-7.145-10.335s-7.132-3.754-11.869-3.754c-4.629,0-8.532,1.211-11.707,3.633-3.176,2.422-5.585,5.802-7.226,10.133-1.642,4.333-2.463,9.435-2.463,15.3s.821,11.01,2.463,15.421c1.642,4.414,4.064,7.845,7.267,10.294,3.203,2.451,7.092,3.674,11.667,3.674Z" fill="#39b54a"/>
    <path d="M676.475,150.377V60.111h20.346v15.097h.969c1.615-5.219,4.441-9.244,8.478-12.069s8.639-4.239,13.807-4.239c1.184,0,2.503.054,3.956.161,1.453.109,2.691.242,3.714.404v19.296c-.861-.269-2.261-.511-4.198-.727-1.938-.213-3.849-.323-5.733-.323-3.876,0-7.361.837-10.456,2.503-3.095,1.669-5.517,3.97-7.267,6.903-1.749,2.936-2.624,6.311-2.624,10.133v53.127h-20.992Z" fill="#39b54a"/>
    <path d="M778.369,152.234c-9.097,0-16.915-1.909-23.455-5.733-6.54-3.822-11.573-9.204-15.098-16.148s-5.288-15.125-5.288-24.545c0-9.312,1.736-17.467,5.208-24.464,3.472-6.995,8.397-12.473,14.775-16.429s13.874-5.934,22.486-5.934c5.49,0,10.725.888,15.704,2.664,4.979,1.776,9.393,4.521,13.241,8.235,3.849,3.713,6.863,8.436,9.043,14.169,2.18,5.733,3.27,12.555,3.27,20.468v6.621h-73.796v-14.291h63.381l-9.85,4.198c0-5.057-.78-9.514-2.341-13.362-1.561-3.846-3.889-6.849-6.984-9.002-3.095-2.151-6.957-3.23-11.586-3.23s-8.558,1.09-11.788,3.27c-3.23,2.18-5.692,5.087-7.388,8.72s-2.543,7.684-2.543,12.151v9.85c0,5.706.969,10.525,2.907,14.452,1.938,3.929,4.656,6.892,8.155,8.881,3.499,1.992,7.563,2.987,12.192,2.987,3.068,0,5.854-.444,8.357-1.332s4.669-2.207,6.5-3.956c1.83-1.747,3.203-3.887,4.118-6.419l19.297,3.956c-1.453,4.844-3.929,9.083-7.428,12.717-3.499,3.633-7.872,6.459-13.12,8.478-5.248,2.018-11.236,3.028-17.965,3.028Z" fill="#39b54a"/>
    <path d="M870.412,152.234c-6.944,0-13.08-.996-18.409-2.987-5.329-1.989-9.702-4.896-13.12-8.72-3.418-3.822-5.638-8.449-6.661-13.887l19.62-3.714c1.238,4.47,3.431,7.791,6.58,9.971s7.28,3.27,12.394,3.27c5.167,0,9.272-1.036,12.313-3.108,3.041-2.07,4.562-4.643,4.562-7.711,0-2.584-.996-4.723-2.987-6.419-1.992-1.696-5.06-2.999-9.204-3.916l-15.421-3.31c-8.505-1.828-14.856-4.844-19.055-9.043-4.198-4.198-6.298-9.608-6.298-16.229,0-5.598,1.534-10.442,4.602-14.532,3.068-4.09,7.334-7.267,12.797-9.527,5.463-2.261,11.801-3.391,19.014-3.391,6.836,0,12.717.969,17.642,2.907,4.925,1.938,8.908,4.643,11.95,8.114,3.041,3.471,5.154,7.548,6.338,12.231l-18.732,3.714c-1.023-3.176-2.88-5.854-5.571-8.034-2.691-2.18-6.486-3.27-11.384-3.27-4.468,0-8.195.982-11.182,2.947-2.987,1.967-4.481,4.481-4.481,7.549,0,2.638.996,4.817,2.987,6.54,1.992,1.725,5.275,3.068,9.85,4.037l15.341,3.23c8.558,1.83,14.91,4.764,19.055,8.801s6.217,9.234,6.217,15.583c0,5.706-1.642,10.727-4.925,15.058-3.283,4.333-7.845,7.724-13.685,10.173s-12.555,3.674-20.145,3.674Z" fill="#39b54a"/>
    <path d="M961.245,152.234c-6.944,0-13.08-.996-18.409-2.987-5.329-1.989-9.702-4.896-13.12-8.72-3.418-3.822-5.638-8.449-6.661-13.887l19.62-3.714c1.238,4.47,3.431,7.791,6.58,9.971s7.28,3.27,12.394,3.27c5.167,0,9.272-1.036,12.313-3.108,3.041-2.07,4.562-4.643,4.562-7.711,0-2.584-.996-4.723-2.987-6.419-1.992-1.696-5.06-2.999-9.204-3.916l-15.421-3.31c-8.505-1.828-14.856-4.844-19.055-9.043-4.198-4.198-6.298-9.608-6.298-16.229,0-5.598,1.534-10.442,4.602-14.532,3.068-4.09,7.334-7.267,12.797-9.527,5.463-2.261,11.801-3.391,19.014-3.391,6.836,0,12.717.969,17.642,2.907,4.925,1.938,8.908,4.643,11.95,8.114,3.041,3.471,5.154,7.548,6.338,12.231l-18.732,3.714c-1.023-3.176-2.88-5.854-5.571-8.034s-6.486-3.27-11.384-3.27c-4.468,0-8.195.982-11.182,2.947-2.987,1.967-4.481,4.481-4.481,7.549,0,2.638.996,4.817,2.987,6.54,1.992,1.725,5.275,3.068,9.85,4.037l15.341,3.23c8.558,1.83,14.91,4.764,19.055,8.801s6.217,9.234,6.217,15.583c0,5.706-1.642,10.727-4.925,15.058-3.283,4.333-7.845,7.724-13.685,10.173s-12.555,3.674-20.145,3.674Z" fill="#39b54a"/>
  </g>
  <g>
    <path d="M138.358,110.729c-.054.689-.122,1.324-.189,1.904-.851,7.24-2.229,13.575-4.282,19.559-.068.176-.122.365-.189.54-4.971,14.318-13.44,26.096-24.313,34.376-9.536,7.267-20.923,11.846-33.417,13.116-4.484.473-13.453.176-17.708-.581-8.496-1.499-15.466-4.039-22.476-8.212-2.256-1.337-4.417-2.782-6.456-4.336-9.59-7.226-16.884-16.708-22.125-28.811-2.634-6.051-4.538-12.548-5.727-19.383-3.201-18.356-1.189-39.05,5.984-59.554.554-1.634,1.162-3.255,1.796-4.89,1.972-5.065,7.064-15.155,9.995-19.842C32.124,14.125,48.481,2.023,65.622.267c3.552-.351,3.633-.351,7.118-.027,12.4,1.162,23.3,6.875,33.944,17.762,7.74,7.942,13.656,16.587,19.234,28.136,6.47,13.453,10.671,28.392,12.278,43.696.581,5.565.635,15.007.162,20.896Z" fill="#39b54a"/>
    <path d="M126.406,77.914c-3.187-2.648-7.186-4.161-11.332-4.321-.5-3.175-1.756-6.159-3.687-8.712,2.228-1.514,3.702-4.094,3.702-6.999,0-4.633-3.784-8.427-8.417-8.427h-.013c-1.296-3.904-5.025-6.754-9.374-6.754-5.43,0-9.873,4.431-9.873,9.873,0,2.081.674,4.039,1.808,5.645-7.563,2.703-12.978,9.928-12.978,18.398v13.44h-31.636c-8.657,0-15.708-4.945-15.721-11.05v-12.711c0-1.459-1.189-2.648-2.648-2.648s-2.648,1.189-2.648,2.648v6.309l-4.458-4.458c-1.039-1.039-2.715-1.039-3.742,0-1.039,1.042-1.039,2.715,0,3.757l4.431,4.443h-6.294c-1.459,0-2.648,1.189-2.648,2.66,0,1.459,1.189,2.648,2.648,2.648h10.063v13.86c0,21.65,15.061,39.831,35.268,44.642,6.482,1.808,15.573.944,15.573.944,21.296-2.318,38.248-19.242,40.588-40.52.003-.045.008-.09.015-.137.527-3.579.257-4.781.257-4.781,0-.042.007-4.603.01-6.596l.002-.914c3.117-.312,5.517-1.092,7.218-1.858.015-.005.03-.013.045-.02,1.077-.505,2.096-1.114,3.067-1.823.008-.005.01-.008.01-.008.252-.182.502-.375.749-.572.892-.729,1.404-1.823,1.404-2.985.015-1.161-.5-2.243-1.391-2.972ZM103.877,78.738c-1.986,0-3.607-1.621-3.607-3.619,0-1.986,1.621-3.607,3.607-3.607,1.998,0,3.619,1.621,3.619,3.607,0,1.998-1.621,3.619-3.619,3.619Z" fill="#fff"/>
  </g>
  <g>
    <path d="M29.36,319.844c-5.698,0-10.756-1.416-15.18-4.25-4.424-2.831-7.895-6.854-10.408-12.066-2.516-5.211-3.772-11.349-3.772-18.407s1.256-13.242,3.772-18.454c2.513-5.211,5.984-9.24,10.408-12.089,4.424-2.849,9.482-4.274,15.18-4.274,3.604,0,6.931.56,9.978,1.681,3.044,1.124,5.733,2.69,8.066,4.704,2.333,2.017,4.25,4.371,5.748,7.07,1.501,2.696,2.525,5.604,3.07,8.724h-6.456c-.484-2.333-1.318-4.474-2.498-6.43-1.183-1.955-2.666-3.66-4.456-5.114-1.787-1.454-3.811-2.584-6.067-3.386-2.256-.802-4.719-1.203-7.385-1.203-4.241,0-8.114,1.106-11.611,3.318-3.501,2.212-6.288,5.453-8.364,9.727-2.076,4.271-3.114,9.515-3.114,15.726s1.047,11.452,3.138,15.726c2.091,4.271,4.884,7.497,8.385,9.68s7.356,3.274,11.567,3.274c2.666,0,5.129-.401,7.385-1.206,2.256-.802,4.279-1.932,6.067-3.386,1.79-1.454,3.274-3.165,4.456-5.135,1.18-1.97,2.014-4.105,2.498-6.409h6.456c-.516,3.091-1.525,5.975-3.023,8.659-1.501,2.681-3.418,5.037-5.751,7.067-2.333,2.029-5.02,3.613-8.066,4.748-3.047,1.138-6.385,1.705-10.022,1.705Z" fill="#777"/>
    <path d="M75.768,287.257v31.679h-6.182v-67.722h6.182v28.771h-1.135c1.392-4.424,3.583-7.618,6.568-9.588,2.982-1.97,6.4-2.955,10.249-2.955,3.454,0,6.483.72,9.09,2.159,2.604,1.439,4.642,3.536,6.111,6.294,1.472,2.758,2.206,6.152,2.206,10.181v32.861h-6.182v-32.407c0-4.15-1.168-7.429-3.501-9.839-2.333-2.41-5.453-3.613-9.361-3.613-2.666,0-5.061.566-7.182,1.705-2.121,1.135-3.796,2.772-5.023,4.908-1.227,2.135-1.84,4.66-1.84,7.568Z" fill="#777"/>
    <path d="M127.538,258.713c-1.215,0-2.268-.425-3.162-1.271-.894-.849-1.339-1.864-1.339-3.047,0-1.212.445-2.233,1.339-3.067s1.947-1.251,3.162-1.251c1.242,0,2.3.416,3.179,1.251s1.318,1.855,1.318,3.067c0,1.183-.439,2.197-1.318,3.047-.879.846-1.938,1.271-3.179,1.271ZM124.399,318.936v-50.814h6.182v50.814h-6.182Z" fill="#777"/>
    <path d="M165.941,319.891c-4.424,0-8.317-1.106-11.679-3.318-3.365-2.212-6.002-5.288-7.91-9.228-1.908-3.937-2.864-8.468-2.864-13.588,0-5.211.956-9.795,2.864-13.75,1.908-3.955,4.545-7.037,7.91-9.249,3.362-2.212,7.255-3.318,11.679-3.318,2.575,0,4.94.378,7.09,1.135,2.153.758,4.061,1.767,5.728,3.023,1.666,1.256,3.053,2.651,4.159,4.182s1.917,3.067,2.43,4.613l-5.86,1.817c-.274-.938-.773-1.938-1.501-2.999-.728-1.059-1.66-2.059-2.796-2.999-1.135-.938-2.477-1.705-4.023-2.295-1.545-.59-3.286-.888-5.226-.888-3.454,0-6.385.941-8.795,2.82s-4.25,4.38-5.521,7.5c-1.274,3.12-1.908,6.589-1.908,10.408,0,3.757.634,7.196,1.908,10.317,1.271,3.12,3.112,5.613,5.521,7.477s5.341,2.796,8.795,2.796c1.97,0,3.743-.304,5.318-.911,1.575-.605,2.946-1.386,4.114-2.339,1.165-.956,2.112-1.985,2.84-3.091s1.227-2.144,1.501-3.114l5.816,1.82c-.484,1.575-1.289,3.135-2.41,4.681s-2.531,2.961-4.226,4.25-3.637,2.318-5.816,3.091c-2.182.773-4.563,1.159-7.137,1.159Z" fill="#777"/>
    <path d="M198.165,318.936v-67.722h6.182v67.722h-6.182ZM203.801,299.936v-7.999h1.274l23.497-23.816h7.771l-23.362,23.68-.728.091-8.453,8.043ZM229.755,318.936l-20.409-25.907,4.409-4.274,23.907,30.18h-7.907Z" fill="#777"/>
    <path d="M265.84,320.027c-4.757,0-8.872-1.115-12.34-3.342-3.468-2.227-6.152-5.309-8.043-9.249-1.896-3.937-2.843-8.468-2.843-13.59s.932-9.665,2.796-13.635c1.864-3.97,4.468-7.09,7.819-9.361,3.347-2.274,7.232-3.409,11.659-3.409,2.787,0,5.468.507,8.043,1.522,2.575,1.015,4.893,2.56,6.955,4.636,2.059,2.076,3.678,4.704,4.86,7.886,1.183,3.179,1.773,6.922,1.773,11.225v2.681h-39.857v-5.318h36.539l-2.814,2c0-3.634-.622-6.893-1.864-9.771-1.245-2.879-3.017-5.15-5.318-6.816-2.303-1.666-5.076-2.501-8.317-2.501-3.215,0-6.023.849-8.432,2.545-2.41,1.696-4.288,3.94-5.636,6.727-1.348,2.787-2.023,5.849-2.023,9.181v3.179c0,3.97.696,7.447,2.091,10.432,1.395,2.985,3.371,5.303,5.931,6.955,2.56,1.652,5.583,2.477,9.069,2.477,2.362,0,4.445-.38,6.25-1.135,1.802-.758,3.315-1.767,4.545-3.023,1.227-1.256,2.141-2.628,2.749-4.114l5.86,1.864c-.787,2.121-2.053,4.091-3.793,5.907-1.743,1.82-3.931,3.28-6.568,4.386-2.637,1.106-5.666,1.66-9.09,1.66Z" fill="#777"/>
    <path d="M305.379,287.257v31.679h-6.182v-50.814h5.955l.044,11.862h-.953c1.392-4.424,3.583-7.618,6.568-9.588,2.982-1.97,6.4-2.955,10.249-2.955,3.454,0,6.477.72,9.066,2.159s4.622,3.536,6.09,6.294c1.469,2.758,2.203,6.152,2.203,10.181v32.861h-6.135v-32.407c0-4.15-1.168-7.429-3.501-9.839-2.333-2.41-5.453-3.613-9.361-3.613-2.666,0-5.061.566-7.182,1.705-2.121,1.135-3.796,2.772-5.023,4.908-1.227,2.135-1.84,4.66-1.84,7.568Z" fill="#777"/>
    <path d="M381.33,318.936v-67.722h39.406v5.772h-32.953v25.727h29.815v5.772h-29.815v30.452h-6.453Z" fill="#777"/>
    <path d="M446.141,320.071c-3.091,0-5.902-.59-8.432-1.773-2.531-1.18-4.545-2.923-6.043-5.226-1.501-2.303-2.25-5.091-2.25-8.361,0-2.516.469-4.63,1.41-6.341.938-1.714,2.286-3.12,4.044-4.226s3.825-1.979,6.205-2.616c2.377-.634,5.005-1.135,7.884-1.498,2.82-.363,5.211-.675,7.182-.932s3.477-.675,4.524-1.251c1.044-.575,1.566-1.498,1.566-2.772v-1.183c0-2.271-.463-4.226-1.386-5.86-.923-1.637-2.271-2.893-4.044-3.775-1.773-.876-3.931-1.315-6.477-1.315-2.395,0-4.501.369-6.317,1.112-1.82.743-3.327,1.714-4.524,2.908-1.197,1.197-2.097,2.51-2.705,3.931l-5.907-2c1.121-2.755,2.696-4.967,4.728-6.636,2.029-1.666,4.318-2.884,6.863-3.657,2.545-.773,5.12-1.159,7.724-1.159,2,0,4.061.265,6.182.796,2.121.528,4.091,1.425,5.91,2.681,1.817,1.256,3.286,2.985,4.406,5.182s1.684,4.976,1.684,8.338v34.498h-6.046v-8.046h-.454c-.728,1.545-1.802,3.023-3.227,4.433-1.425,1.41-3.176,2.554-5.25,3.43-2.076.879-4.492,1.318-7.249,1.318ZM447.049,314.574c3.091,0,5.772-.684,8.046-2.047,2.271-1.363,4.029-3.197,5.27-5.5,1.245-2.3,1.864-4.831,1.864-7.589v-7.226c-.454.425-1.197.802-2.227,1.135s-2.203.622-3.521.864c-1.318.242-2.646.454-3.979.634-1.333.183-2.498.336-3.498.457-2.82.333-5.235.879-7.249,1.634-2.017.758-3.545,1.79-4.592,3.091-1.044,1.304-1.566,2.955-1.566,4.955,0,2.029.498,3.757,1.498,5.182,1,1.425,2.365,2.516,4.091,3.271,1.728.758,3.681,1.138,5.863,1.138Z" fill="#777"/>
    <path d="M483.91,318.936v-50.814h5.999v7.907h.454c1.032-2.604,2.796-4.686,5.297-6.247,2.498-1.56,5.341-2.342,8.521-2.342.516,0,1.062.009,1.637.024s1.077.038,1.501.068v6.182c-.212-.062-.667-.13-1.366-.206-.696-.074-1.454-.112-2.271-.112-2.607,0-4.94.56-6.999,1.681-2.062,1.121-3.675,2.651-4.843,4.589-1.165,1.941-1.749,4.167-1.749,6.683v32.587h-6.182Z" fill="#777"/>
    <path d="M518.317,318.936v-50.814h5.999l.047,11.591h-.681c.696-2.849,1.817-5.182,3.362-7.002,1.545-1.817,3.356-3.179,5.433-4.088,2.073-.911,4.203-1.366,6.385-1.366,3.725,0,6.795,1.153,9.202,3.454,2.41,2.303,3.946,5.394,4.616,9.273h-1c.605-2.637,1.696-4.902,3.271-6.795,1.575-1.893,3.501-3.353,5.772-4.386,2.274-1.029,4.757-1.545,7.456-1.545,3.029,0,5.733.661,8.111,1.979,2.38,1.315,4.259,3.271,5.636,5.863,1.38,2.59,2.067,5.792,2.067,9.612v34.224h-6.135v-34.041c0-4.091-1.091-7.108-3.274-9.046-2.18-1.941-4.86-2.908-8.043-2.908-2.424,0-4.563.513-6.409,1.545-1.849,1.029-3.294,2.483-4.341,4.362-1.044,1.879-1.566,4.076-1.566,6.589v33.498h-6.138v-34.587c0-3.516-1.023-6.297-3.067-8.341-2.047-2.047-4.689-3.067-7.931-3.067-2.274,0-4.365.528-6.273,1.59s-3.439,2.575-4.589,4.545c-1.153,1.97-1.728,4.362-1.728,7.182v32.678h-6.182Z" fill="#777"/>
    <path d="M626.899,318.936v-67.722h9.181l18.908,46.452c.422,1,.87,2.174,1.339,3.521s.97,2.79,1.501,4.318c.528,1.531,1.038,3.053,1.522,4.568s.938,2.955,1.363,4.318h-1.634c.422-1.304.876-2.696,1.363-4.182.484-1.484.991-2.999,1.522-4.545.531-1.545,1.038-3.005,1.522-4.386.487-1.377.941-2.584,1.366-3.613l18.769-46.452h9.181v67.722h-6.362v-47.404c0-1.607.021-3.28.068-5.023.044-1.743.083-3.492.112-5.25.029-1.758.047-3.483.047-5.182h.726c-.605,1.82-1.233,3.66-1.885,5.524-.652,1.861-1.289,3.672-1.908,5.43-.622,1.758-1.221,3.404-1.796,4.931-.575,1.531-1.091,2.858-1.545,3.979l-17.59,42.995h-5.68l-17.725-42.995c-.457-1.121-.964-2.424-1.525-3.911-.56-1.484-1.15-3.097-1.773-4.84-.619-1.743-1.256-3.551-1.908-5.43s-1.327-3.775-2.023-5.683h.773c.029,1.545.062,3.182.091,4.911.029,1.725.062,3.474.091,5.247.029,1.775.053,3.486.068,5.138.015,1.652.024,3.173.024,4.568v42.995h-6.182Z" fill="#777"/>
    <path d="M722.891,320.071c-3.091,0-5.902-.59-8.432-1.773-2.531-1.18-4.545-2.923-6.043-5.226-1.501-2.303-2.25-5.091-2.25-8.361,0-2.516.469-4.63,1.41-6.341.938-1.714,2.286-3.12,4.044-4.226s3.825-1.979,6.205-2.616c2.377-.634,5.005-1.135,7.884-1.498,2.82-.363,5.211-.675,7.182-.932s3.477-.675,4.524-1.251c1.044-.575,1.566-1.498,1.566-2.772v-1.183c0-2.271-.463-4.226-1.386-5.86-.923-1.637-2.271-2.893-4.044-3.775-1.773-.876-3.931-1.315-6.477-1.315-2.395,0-4.501.369-6.317,1.112-1.82.743-3.327,1.714-4.524,2.908-1.197,1.197-2.097,2.51-2.705,3.931l-5.907-2c1.121-2.755,2.696-4.967,4.728-6.636,2.029-1.666,4.318-2.884,6.863-3.657,2.545-.773,5.12-1.159,7.724-1.159,2,0,4.061.265,6.182.796,2.121.528,4.091,1.425,5.91,2.681,1.817,1.256,3.286,2.985,4.406,5.182,1.121,2.197,1.684,4.976,1.684,8.338v34.498h-6.046v-8.046h-.454c-.728,1.545-1.802,3.023-3.227,4.433s-3.176,2.554-5.25,3.43c-2.076.879-4.492,1.318-7.249,1.318ZM723.799,314.574c3.091,0,5.772-.684,8.046-2.047,2.271-1.363,4.029-3.197,5.27-5.5,1.245-2.3,1.864-4.831,1.864-7.589v-7.226c-.454.425-1.197.802-2.227,1.135s-2.203.622-3.521.864c-1.318.242-2.646.454-3.979.634-1.333.183-2.498.336-3.498.457-2.82.333-5.235.879-7.249,1.634-2.017.758-3.545,1.79-4.592,3.091-1.044,1.304-1.566,2.955-1.566,4.955,0,2.029.498,3.757,1.498,5.182s2.365,2.516,4.091,3.271c1.728.758,3.681,1.138,5.863,1.138Z" fill="#777"/>
    <path d="M766.838,287.257v31.679h-6.182v-50.814h5.955l.044,11.862h-.953c1.392-4.424,3.583-7.618,6.568-9.588,2.982-1.97,6.4-2.955,10.249-2.955,3.454,0,6.477.72,9.066,2.159,2.59,1.439,4.622,3.536,6.09,6.294,1.469,2.758,2.203,6.152,2.203,10.181v32.861h-6.135v-32.407c0-4.15-1.168-7.429-3.501-9.839-2.333-2.41-5.453-3.613-9.361-3.613-2.666,0-5.061.566-7.182,1.705-2.121,1.135-3.796,2.772-5.023,4.908-1.227,2.135-1.84,4.66-1.84,7.568Z" fill="#777"/>
    <path d="M828.789,320.071c-3.091,0-5.902-.59-8.432-1.773-2.531-1.18-4.545-2.923-6.043-5.226-1.501-2.303-2.25-5.091-2.25-8.361,0-2.516.469-4.63,1.41-6.341.938-1.714,2.286-3.12,4.044-4.226,1.758-1.106,3.825-1.979,6.205-2.616,2.377-.634,5.005-1.135,7.884-1.498,2.82-.363,5.211-.675,7.179-.932,1.97-.257,3.477-.675,4.524-1.251,1.044-.575,1.566-1.498,1.566-2.772v-1.183c0-2.271-.463-4.226-1.386-5.86-.923-1.637-2.271-2.893-4.044-3.775-1.773-.876-3.928-1.315-6.474-1.315-2.395,0-4.501.369-6.317,1.112-1.82.743-3.327,1.714-4.524,2.908-1.197,1.197-2.097,2.51-2.705,3.931l-5.907-2c1.121-2.755,2.696-4.967,4.728-6.636,2.029-1.666,4.318-2.884,6.863-3.657,2.545-.773,5.12-1.159,7.724-1.159,2,0,4.061.265,6.179.796,2.121.528,4.091,1.425,5.91,2.681,1.817,1.256,3.286,2.985,4.406,5.182,1.121,2.197,1.684,4.976,1.684,8.338v34.498h-6.046v-8.046h-.454c-.728,1.545-1.802,3.023-3.227,4.433-1.425,1.41-3.176,2.554-5.247,3.43-2.076.879-4.492,1.318-7.249,1.318ZM829.697,314.574c3.091,0,5.772-.684,8.043-2.047,2.271-1.363,4.029-3.197,5.27-5.5,1.245-2.3,1.864-4.831,1.864-7.589v-7.226c-.454.425-1.197.802-2.227,1.135-1.029.333-2.203.622-3.521.864-1.318.242-2.643.454-3.976.634-1.333.183-2.498.336-3.498.457-2.82.333-5.235.879-7.249,1.634-2.017.758-3.545,1.79-4.592,3.091-1.044,1.304-1.566,2.955-1.566,4.955,0,2.029.498,3.757,1.498,5.182s2.365,2.516,4.091,3.271c1.728.758,3.681,1.138,5.863,1.138Z" fill="#777"/>
    <path d="M886.009,339.023c-3.454,0-6.491-.445-9.113-1.339-2.622-.894-4.825-2.115-6.612-3.66-1.787-1.545-3.182-3.318-4.182-5.318l5.091-3.091c.728,1.304,1.705,2.569,2.932,3.796,1.227,1.227,2.811,2.227,4.748,2.999,1.941.773,4.318,1.159,7.137,1.159,4.483,0,8.09-1.112,10.818-3.339,2.725-2.23,4.091-5.674,4.091-10.34v-11.408h-.593c-.667,1.575-1.643,3.126-2.932,4.657s-2.961,2.787-5.023,3.772c-2.059.985-4.604,1.478-7.636,1.478-4.029,0-7.612-1-10.747-2.999-3.138-2-5.598-4.863-7.385-8.591-1.79-3.725-2.684-8.181-2.684-13.36s.879-9.721,2.637-13.614c1.758-3.893,4.212-6.931,7.364-9.113,3.15-2.18,6.801-3.271,10.954-3.271,3.091,0,5.666.546,7.724,1.637,2.062,1.091,3.719,2.445,4.978,4.067,1.256,1.622,2.218,3.203,2.884,4.748h.637v-9.771h5.999v52.041c0,4.303-.908,7.848-2.725,10.635-1.82,2.787-4.318,4.855-7.5,6.205-3.182,1.348-6.804,2.02-10.862,2.02ZM885.646,312.845c3.241,0,6.005-.779,8.293-2.342,2.289-1.56,4.038-3.802,5.25-6.724,1.212-2.926,1.817-6.418,1.817-10.479,0-3.937-.599-7.429-1.793-10.476-1.197-3.044-2.932-5.439-5.206-7.182-2.271-1.74-5.061-2.613-8.361-2.613-3.336,0-6.152.902-8.456,2.705-2.303,1.805-4.052,4.235-5.25,7.297-1.197,3.058-1.793,6.483-1.793,10.27,0,3.849.605,7.244,1.817,10.181,1.212,2.94,2.97,5.235,5.273,6.887,2.3,1.652,5.105,2.477,8.409,2.477Z" fill="#777"/>
    <path d="M943.229,320.027c-4.757,0-8.872-1.115-12.34-3.342-3.468-2.227-6.152-5.309-8.043-9.249-1.896-3.937-2.843-8.468-2.843-13.59s.932-9.665,2.796-13.635c1.864-3.97,4.468-7.09,7.819-9.361,3.347-2.274,7.232-3.409,11.659-3.409,2.787,0,5.468.507,8.043,1.522,2.575,1.015,4.893,2.56,6.955,4.636,2.062,2.076,3.681,4.704,4.863,7.886,1.183,3.179,1.773,6.922,1.773,11.225v2.681h-39.86v-5.318h36.542l-2.817,2c0-3.634-.622-6.893-1.864-9.771-1.245-2.879-3.017-5.15-5.318-6.816-2.303-1.666-5.076-2.501-8.317-2.501-3.215,0-6.023.849-8.432,2.545-2.41,1.696-4.288,3.94-5.636,6.727-1.348,2.787-2.023,5.849-2.023,9.181v3.179c0,3.97.696,7.447,2.091,10.432,1.395,2.985,3.371,5.303,5.931,6.955s5.583,2.477,9.069,2.477c2.362,0,4.445-.38,6.25-1.135,1.802-.758,3.315-1.767,4.545-3.023,1.227-1.256,2.141-2.628,2.749-4.114l5.863,1.864c-.787,2.121-2.053,4.091-3.796,5.907-1.743,1.82-3.931,3.28-6.568,4.386s-5.666,1.66-9.09,1.66Z" fill="#777"/>
    <path d="M976.591,318.936v-50.814h5.999v7.907h.454c1.032-2.604,2.796-4.686,5.297-6.247,2.498-1.56,5.341-2.342,8.521-2.342.516,0,1.062.009,1.637.024s1.077.038,1.501.068v6.182c-.212-.062-.667-.13-1.366-.206-.696-.074-1.454-.112-2.271-.112-2.607,0-4.94.56-6.999,1.681-2.062,1.121-3.675,2.651-4.843,4.589-1.165,1.941-1.749,4.167-1.749,6.683v32.587h-6.182Z" fill="#777"/>
  </g>
  <line y1="217.102" x2="1000" y2="217.102" fill="none" stroke="#777" stroke-miterlimit="10" stroke-width="6.089"/>
</svg>