<?xml version="1.0" encoding="UTF-8"?>
<svg id="Layer_1" data-name="Layer 1" xmlns="http://www.w3.org/2000/svg" width="768.496" height="1000" viewBox="0 0 768.496 1000">
  <path d="M766.733,613.622c-.299,3.818-.673,7.335-1.048,10.554-4.716,40.121-12.351,75.227-23.729,108.387-.374.973-.673,2.021-1.048,2.994-27.546,79.344-74.478,144.615-134.734,190.5-52.846,40.271-115.947,65.646-185.185,72.682-24.851,2.62-74.553.973-98.131-3.219-47.082-8.309-85.706-22.381-124.555-45.51-12.5-7.41-24.476-15.42-35.779-24.028-53.145-40.046-93.566-92.592-122.608-159.66-14.596-33.534-25.15-69.538-31.737-107.413-17.74-101.724-6.587-216.398,33.16-330.024,3.069-9.057,6.437-18.04,9.956-27.097,10.928-28.07,39.148-83.984,55.391-109.958C178.018,78.277,268.664,11.21,363.652,1.479c19.686-1.946,20.135-1.946,39.447-.149,68.715,6.437,129.121,38.1,188.104,98.431,42.89,44.013,75.676,91.919,106.59,155.918,35.854,74.553,59.133,157.34,68.041,242.148,3.219,30.839,3.518,83.161.898,115.797Z" fill="#39b54a"/>
  <path d="M700.496,431.77c-17.662-14.672-39.822-23.06-62.799-23.946-2.768-17.592-9.731-34.133-20.43-48.279,12.347-8.388,20.513-22.686,20.513-38.784,0-25.676-20.97-46.701-46.646-46.701h-.069c-7.184-21.634-27.849-37.427-51.947-37.427-30.091,0-54.715,24.555-54.715,54.715,0,11.53,3.737,22.382,10.021,31.282-41.912,14.976-71.92,55.02-71.92,101.956v74.481h-175.315c-47.975,0-87.049-27.406-87.118-61.234v-70.439c0-8.083-6.589-14.672-14.672-14.672s-14.672,6.589-14.672,14.672v34.963l-24.707-24.707c-5.758-5.758-15.045-5.758-20.734,0-5.758,5.772-5.758,15.046,0,20.817l24.555,24.624h-34.881c-8.083,0-14.672,6.589-14.672,14.741,0,8.083,6.589,14.672,14.672,14.672h55.767v76.806c0,119.977,83.464,220.729,195.441,247.388,35.918,10.021,86.301,5.232,86.301,5.232,118.012-12.845,211.954-106.634,224.923-224.55.014-.249.042-.498.083-.761,2.92-19.835,1.426-26.493,1.426-26.493,0-.235.041-25.51.055-36.555l.014-5.066c17.274-1.73,30.576-6.049,40.002-10.298.083-.028.166-.069.249-.111,5.966-2.796,11.613-6.173,16.997-10.104.042-.028.055-.042.055-.042,1.398-1.01,2.782-2.076,4.152-3.17,4.941-4.042,7.779-10.104,7.779-16.541.083-6.436-2.768-12.43-7.709-16.471ZM575.646,436.338c-11.004,0-19.987-8.983-19.987-20.056,0-11.004,8.983-19.987,19.987-19.987,11.073,0,20.057,8.983,20.057,19.987,0,11.073-8.983,20.056-20.057,20.056Z" fill="#fff"/>
</svg>