<?xml version="1.0" encoding="UTF-8"?>
<svg id="Layer_1" data-name="Layer 1" xmlns="http://www.w3.org/2000/svg" width="1000" height="1000" xmlns:xlink="http://www.w3.org/1999/xlink" viewBox="0 0 1000 1000">
  <defs>
    <linearGradient id="linear-gradient" x1="595.085" y1="-39.251" x2="404.915" y2="1039.251" gradientUnits="userSpaceOnUse">
      <stop offset="0" stop-color="#d6f0ff"/>
      <stop offset=".04" stop-color="#d4eaf8"/>
      <stop offset=".218" stop-color="#cdd7dd"/>
      <stop offset=".377" stop-color="#c9cccd"/>
      <stop offset=".5" stop-color="#c8c8c8"/>
      <stop offset=".607" stop-color="#d2d2d2"/>
      <stop offset=".822" stop-color="#e0e0e0"/>
      <stop offset="1" stop-color="#e6e6e6"/>
    </linearGradient>
  </defs>
  <rect x="0" y="0" width="1000" height="1000" rx="200" ry="200" fill="url(#linear-gradient)"/>
  <g>
    <path d="M776.333,582.089c-.216,2.758-.487,5.3-.757,7.625-3.407,28.986-8.923,54.349-17.143,78.306-.27.703-.487,1.46-.757,2.163-19.901,57.323-53.808,104.48-97.341,137.63-38.179,29.094-83.768,47.427-133.791,52.51-17.954,1.893-53.862.703-70.897-2.325-34.015-6.003-61.92-16.17-89.987-32.88-9.031-5.354-17.683-11.14-25.849-17.359-38.396-28.932-67.598-66.895-88.581-115.35-10.545-24.227-18.17-50.239-22.929-77.603-12.817-73.493-4.759-156.341,23.957-238.432,2.217-6.544,4.651-13.033,7.193-19.577,7.895-20.279,28.283-60.676,40.018-79.441,51.537-82.037,117.026-130.491,185.652-137.522,14.223-1.406,14.547-1.406,28.5-.108,49.644,4.651,93.286,27.526,135.899,71.113,30.987,31.798,54.673,66.409,77.008,112.646,25.904,53.862,42.722,113.673,49.157,174.944,2.325,22.28,2.542,60.082.649,83.66Z" fill="#39b54a"/>
    <path d="M728.479,450.706c-12.76-10.6-28.77-16.66-45.37-17.3-2-12.71-7.03-24.66-14.76-34.88,8.92-6.06,14.82-16.39,14.82-28.02,0-18.55-15.15-33.74-33.7-33.74h-.05c-5.19-15.63-20.12-27.04-37.53-27.04-21.74,0-39.53,17.74-39.53,39.53,0,8.33,2.7,16.17,7.24,22.6-30.28,10.82-51.96,39.75-51.96,73.66v53.81h-126.66c-34.66,0-62.89-19.8-62.94-44.24v-50.89c0-5.84-4.76-10.6-10.6-10.6s-10.6,4.76-10.6,10.6v25.26l-17.85-17.85c-4.16-4.16-10.87-4.16-14.98,0-4.16,4.17-4.16,10.87,0,15.04l17.74,17.79h-25.2c-5.84,0-10.6,4.76-10.6,10.65,0,5.84,4.76,10.6,10.6,10.6h40.29v55.49c0,86.68,60.3,159.47,141.2,178.73,25.95,7.24,62.35,3.78,62.35,3.78,85.26-9.28,153.13-77.04,162.5-162.23.01-.18.03-.36.06-.55,2.11-14.33,1.03-19.14,1.03-19.14,0-.17.03-18.43.04-26.41l.01-3.66c12.48-1.25,22.09-4.37,28.9-7.44.06-.02.12-.05.18-.08,4.31-2.02,8.39-4.46,12.28-7.3.03-.02.04-.03.04-.03,1.01-.73,2.01-1.5,3-2.29,3.57-2.92,5.62-7.3,5.62-11.95.06-4.65-2-8.98-5.57-11.9ZM638.279,454.006c-7.95,0-14.44-6.49-14.44-14.49,0-7.95,6.49-14.44,14.44-14.44,8,0,14.49,6.49,14.49,14.44,0,8-6.49,14.49-14.49,14.49Z" fill="#fff"/>
  </g>
</svg>